<?xml version="1.0" standalone="no"?>
<!DOCTYPE svg PUBLIC "-//W3C//DTD SVG 20010904//EN"
 "http://www.w3.org/TR/2001/REC-SVG-20010904/DTD/svg10.dtd">
<svg version="1.0" xmlns="http://www.w3.org/2000/svg"
 width="148.000000pt" height="148.000000pt" viewBox="0 0 148.000000 148.000000"
 preserveAspectRatio="xMidYMid meet">
<metadata>
Created by potrace 1.11, written by Peter Selinger 2001-2013
</metadata>
<g transform="translate(0.000000,148.000000) scale(0.100000,-0.100000)"
fill="#000000" stroke="none">
<path d="M660 1447 c-3 -2 -25 -7 -50 -10 -214 -27 -433 -187 -538 -392 -36
-72 -81 -245 -62 -245 4 0 11 23 14 52 10 70 58 191 103 258 135 200 347 317
590 324 215 7 406 -70 553 -223 80 -84 123 -155 163 -268 26 -77 30 -102 30
-198 0 -60 -6 -130 -12 -155 -7 -25 -15 -54 -17 -65 -8 -44 -76 -164 -129
-228 -208 -252 -569 -333 -873 -196 -213 96 -379 308 -408 522 -4 26 -10 47
-14 47 -12 0 0 -67 25 -148 62 -195 225 -368 422 -447 157 -63 337 -70 511
-19 219 63 406 247 479 469 22 68 26 98 27 205 1 104 -3 138 -22 200 -75 241
-272 429 -519 495 -56 16 -263 32 -273 22z"/>
<path d="M625 1365 c-257 -46 -459 -226 -525 -465 -42 -150 -22 -323 53 -465
46 -86 174 -212 262 -257 117 -60 192 -80 320 -83 118 -2 266 39 370 103 65
40 179 162 218 232 75 135 96 288 63 455 -9 47 -48 134 -83 187 -148 224 -416
340 -678 293z"/>
<path d="M0 735 c0 -30 3 -55 8 -55 4 0 7 25 7 55 1 30 -3 55 -7 55 -4 0 -8
-25 -8 -55z"/>
</g>
</svg>
